<svg width="630" height="98" viewBox="0 0 630 98" fill="none" xmlns="http://www.w3.org/2000/svg">
<g filter="url(#filter0_d_1932_1136)">
<path d="M25.0227 70L4.70455 0.181816H23.3523L33.8864 45.9318H34.4659L46.5 0.181816H61.7045L73.7386 46.0341H74.3182L84.8864 0.181816H103.5L83.2159 70H66.9545L54.375 27.6591H53.8295L41.25 70H25.0227ZM129.136 70.9886C123.659 70.9886 118.932 69.9091 114.955 67.75C111 65.5682 107.955 62.4659 105.818 58.4432C103.705 54.3977 102.648 49.5909 102.648 44.0227C102.648 38.6136 103.716 33.8864 105.852 29.8409C107.989 25.7727 111 22.6136 114.886 20.3636C118.773 18.0909 123.352 16.9545 128.625 16.9545C132.352 16.9545 135.761 17.5341 138.852 18.6932C141.943 19.8523 144.614 21.5682 146.864 23.8409C149.114 26.1136 150.864 28.9205 152.114 32.2614C153.364 35.5795 153.989 39.3864 153.989 43.6818V47.8409H108.477V38.1591H138.477C138.455 36.3864 138.034 34.8068 137.216 33.4205C136.398 32.0341 135.273 30.9545 133.841 30.1818C132.432 29.3864 130.807 28.9886 128.966 28.9886C127.102 28.9886 125.432 29.4091 123.955 30.25C122.477 31.0682 121.307 32.1932 120.443 33.625C119.58 35.0341 119.125 36.6364 119.08 38.4318V48.2841C119.08 50.4205 119.5 52.2955 120.341 53.9091C121.182 55.5 122.375 56.7386 123.92 57.625C125.466 58.5114 127.307 58.9545 129.443 58.9545C130.92 58.9545 132.261 58.75 133.466 58.3409C134.67 57.9318 135.705 57.3295 136.568 56.5341C137.432 55.7386 138.08 54.7614 138.511 53.6023L153.818 54.0455C153.182 57.4773 151.784 60.4659 149.625 63.0114C147.489 65.5341 144.682 67.5 141.205 68.9091C137.727 70.2955 133.705 70.9886 129.136 70.9886ZM177.264 70.8864C173.923 70.8864 170.957 70.3295 168.366 69.2159C165.798 68.0795 163.764 66.375 162.264 64.1023C160.787 61.8068 160.048 58.9318 160.048 55.4773C160.048 52.5682 160.56 50.1136 161.582 48.1136C162.605 46.1136 164.014 44.4886 165.81 43.2386C167.605 41.9886 169.673 41.0455 172.014 40.4091C174.355 39.75 176.855 39.3068 179.514 39.0795C182.491 38.8068 184.889 38.5227 186.707 38.2273C188.526 37.9091 189.844 37.4659 190.662 36.8977C191.503 36.3068 191.923 35.4773 191.923 34.4091V34.2386C191.923 32.4886 191.321 31.1364 190.116 30.1818C188.912 29.2273 187.287 28.75 185.241 28.75C183.037 28.75 181.264 29.2273 179.923 30.1818C178.582 31.1364 177.73 32.4545 177.366 34.1364L161.991 33.5909C162.446 30.4091 163.616 27.5682 165.503 25.0682C167.412 22.5455 170.026 20.5682 173.344 19.1364C176.685 17.6818 180.696 16.9545 185.378 16.9545C188.719 16.9545 191.798 17.3523 194.616 18.1477C197.435 18.9205 199.889 20.0568 201.98 21.5568C204.071 23.0341 205.685 24.8523 206.821 27.0114C207.98 29.1705 208.56 31.6364 208.56 34.4091V70H192.878V62.7045H192.469C191.537 64.4773 190.344 65.9773 188.889 67.2045C187.457 68.4318 185.764 69.3523 183.81 69.9659C181.878 70.5795 179.696 70.8864 177.264 70.8864ZM182.412 59.9773C184.207 59.9773 185.821 59.6136 187.253 58.8864C188.707 58.1591 189.866 57.1591 190.73 55.8864C191.594 54.5909 192.026 53.0909 192.026 51.3864V46.4091C191.548 46.6591 190.969 46.8864 190.287 47.0909C189.628 47.2955 188.901 47.4886 188.105 47.6705C187.31 47.8523 186.491 48.0114 185.651 48.1477C184.81 48.2841 184.003 48.4091 183.23 48.5227C181.662 48.7727 180.321 49.1591 179.207 49.6818C178.116 50.2045 177.276 50.8864 176.685 51.7273C176.116 52.5455 175.832 53.5227 175.832 54.6591C175.832 56.3864 176.446 57.7045 177.673 58.6136C178.923 59.5227 180.503 59.9773 182.412 59.9773ZM248.31 17.6364V29.9091H215.276V17.6364H248.31ZM222.196 5.09091H238.866V53.5341C238.866 54.5568 239.026 55.3864 239.344 56.0227C239.685 56.6364 240.173 57.0795 240.81 57.3523C241.446 57.6023 242.207 57.7273 243.094 57.7273C243.73 57.7273 244.401 57.6705 245.105 57.5568C245.832 57.4205 246.378 57.3068 246.741 57.2159L249.264 69.25C248.469 69.4773 247.344 69.7614 245.889 70.1023C244.457 70.4432 242.741 70.6591 240.741 70.75C236.832 70.9318 233.48 70.4773 230.685 69.3864C227.912 68.2727 225.787 66.5455 224.31 64.2045C222.855 61.8636 222.151 58.9205 222.196 55.375V5.09091ZM274.611 40.1364V70H257.94V0.181816H274.065V27.25H274.645C275.827 24.0227 277.759 21.5 280.44 19.6818C283.145 17.8636 286.452 16.9545 290.361 16.9545C294.043 16.9545 297.247 17.7727 299.974 19.4091C302.702 21.0227 304.815 23.3068 306.315 26.2614C307.838 29.2159 308.588 32.6705 308.565 36.625V70H291.895V39.8977C291.918 36.9886 291.19 34.7159 289.713 33.0795C288.236 31.4432 286.156 30.625 283.474 30.625C281.724 30.625 280.179 31.0114 278.838 31.7841C277.52 32.5341 276.486 33.6136 275.736 35.0227C275.009 36.4318 274.634 38.1364 274.611 40.1364ZM343.449 70.9886C337.972 70.9886 333.244 69.9091 329.267 67.75C325.313 65.5682 322.267 62.4659 320.131 58.4432C318.017 54.3977 316.96 49.5909 316.96 44.0227C316.96 38.6136 318.028 33.8864 320.165 29.8409C322.301 25.7727 325.312 22.6136 329.199 20.3636C333.085 18.0909 337.665 16.9545 342.938 16.9545C346.665 16.9545 350.074 17.5341 353.165 18.6932C356.256 19.8523 358.926 21.5682 361.176 23.8409C363.426 26.1136 365.176 28.9205 366.426 32.2614C367.676 35.5795 368.301 39.3864 368.301 43.6818V47.8409H322.79V38.1591H352.79C352.767 36.3864 352.347 34.8068 351.528 33.4205C350.71 32.0341 349.585 30.9545 348.153 30.1818C346.744 29.3864 345.119 28.9886 343.278 28.9886C341.415 28.9886 339.744 29.4091 338.267 30.25C336.79 31.0682 335.619 32.1932 334.756 33.625C333.892 35.0341 333.438 36.6364 333.392 38.4318V48.2841C333.392 50.4205 333.813 52.2955 334.653 53.9091C335.494 55.5 336.688 56.7386 338.233 57.625C339.778 58.5114 341.619 58.9545 343.756 58.9545C345.233 58.9545 346.574 58.75 347.778 58.3409C348.983 57.9318 350.017 57.3295 350.881 56.5341C351.744 55.7386 352.392 54.7614 352.824 53.6023L368.131 54.0455C367.494 57.4773 366.097 60.4659 363.938 63.0114C361.801 65.5341 358.994 67.5 355.517 68.9091C352.04 70.2955 348.017 70.9886 343.449 70.9886ZM376.815 70V17.6364H393.009V27.1818H393.554C394.509 23.7273 396.065 21.1591 398.224 19.4773C400.384 17.7727 402.895 16.9205 405.759 16.9205C406.531 16.9205 407.327 16.9773 408.145 17.0909C408.963 17.1818 409.724 17.3295 410.429 17.5341V32.0227C409.634 31.75 408.588 31.5341 407.293 31.375C406.02 31.2159 404.884 31.1364 403.884 31.1364C401.906 31.1364 400.122 31.5795 398.531 32.4659C396.963 33.3295 395.724 34.5455 394.815 36.1136C393.929 37.6591 393.486 39.4773 393.486 41.5682V70H376.815ZM452.949 70H434.812L458.369 0.181816H480.835L504.392 70H486.256L469.858 17.7727H469.312L452.949 70ZM450.528 42.5227H488.438V55.3409H450.528V42.5227ZM511.909 89.6364V17.6364H528.409V26.6023H528.92C529.602 25.0114 530.568 23.4773 531.818 22C533.091 20.5227 534.705 19.3182 536.659 18.3864C538.636 17.4318 541 16.9545 543.75 16.9545C547.386 16.9545 550.784 17.9091 553.943 19.8182C557.125 21.7273 559.693 24.6705 561.648 28.6477C563.602 32.625 564.58 37.6932 564.58 43.8523C564.58 49.7841 563.636 54.75 561.75 58.75C559.886 62.75 557.364 65.75 554.182 67.75C551.023 69.75 547.511 70.75 543.648 70.75C541.011 70.75 538.727 70.3182 536.795 69.4545C534.864 68.5909 533.239 67.4545 531.92 66.0455C530.625 64.6364 529.625 63.125 528.92 61.5114H528.58V89.6364H511.909ZM528.239 43.8182C528.239 46.6364 528.614 49.0909 529.364 51.1818C530.136 53.2727 531.239 54.8977 532.67 56.0568C534.125 57.1932 535.864 57.7614 537.886 57.7614C539.932 57.7614 541.67 57.1932 543.102 56.0568C544.534 54.8977 545.614 53.2727 546.341 51.1818C547.091 49.0909 547.466 46.6364 547.466 43.8182C547.466 41 547.091 38.5568 546.341 36.4886C545.614 34.4205 544.534 32.8182 543.102 31.6818C541.693 30.5455 539.955 29.9773 537.886 29.9773C535.841 29.9773 534.102 30.5341 532.67 31.6477C531.239 32.7614 530.136 34.3523 529.364 36.4205C528.614 38.4886 528.239 40.9545 528.239 43.8182ZM573.315 89.6364V17.6364H589.815V26.6023H590.327C591.009 25.0114 591.974 23.4773 593.224 22C594.497 20.5227 596.111 19.3182 598.065 18.3864C600.043 17.4318 602.406 16.9545 605.156 16.9545C608.793 16.9545 612.19 17.9091 615.349 19.8182C618.531 21.7273 621.099 24.6705 623.054 28.6477C625.009 32.625 625.986 37.6932 625.986 43.8523C625.986 49.7841 625.043 54.75 623.156 58.75C621.293 62.75 618.77 65.75 615.588 67.75C612.429 69.75 608.918 70.75 605.054 70.75C602.418 70.75 600.134 70.3182 598.202 69.4545C596.27 68.5909 594.645 67.4545 593.327 66.0455C592.031 64.6364 591.031 63.125 590.327 61.5114H589.986V89.6364H573.315ZM589.645 43.8182C589.645 46.6364 590.02 49.0909 590.77 51.1818C591.543 53.2727 592.645 54.8977 594.077 56.0568C595.531 57.1932 597.27 57.7614 599.293 57.7614C601.338 57.7614 603.077 57.1932 604.509 56.0568C605.94 54.8977 607.02 53.2727 607.747 51.1818C608.497 49.0909 608.872 46.6364 608.872 43.8182C608.872 41 608.497 38.5568 607.747 36.4886C607.02 34.4205 605.94 32.8182 604.509 31.6818C603.099 30.5455 601.361 29.9773 599.293 29.9773C597.247 29.9773 595.509 30.5341 594.077 31.6477C592.645 32.7614 591.543 34.3523 590.77 36.4205C590.02 38.4886 589.645 40.9545 589.645 43.8182Z" fill="white"/>
</g>
<defs>
<filter id="filter0_d_1932_1136" x="0.70459" y="0.181824" width="629.281" height="97.4545" filterUnits="userSpaceOnUse" color-interpolation-filters="sRGB">
<feFlood flood-opacity="0" result="BackgroundImageFix"/>
<feColorMatrix in="SourceAlpha" type="matrix" values="0 0 0 0 0 0 0 0 0 0 0 0 0 0 0 0 0 0 127 0" result="hardAlpha"/>
<feOffset dy="4"/>
<feGaussianBlur stdDeviation="2"/>
<feComposite in2="hardAlpha" operator="out"/>
<feColorMatrix type="matrix" values="0 0 0 0 0 0 0 0 0 0 0 0 0 0 0 0 0 0 0.25 0"/>
<feBlend mode="normal" in2="BackgroundImageFix" result="effect1_dropShadow_1932_1136"/>
<feBlend mode="normal" in="SourceGraphic" in2="effect1_dropShadow_1932_1136" result="shape"/>
</filter>
</defs>
</svg>
